<svg xmlns="http://www.w3.org/2000/svg" x="0px" y="0px"
width="32" height="32"
viewBox="0 0 172 172"
style=" fill:#000000;"><defs><linearGradient x1="29.81244" y1="42.32275" x2="29.81244" y2="133.03125" gradientUnits="userSpaceOnUse" id="color-1_KyhruKR_bj-O_gr1"><stop offset="0" stop-color="#def9fa"></stop><stop offset="1" stop-color="#5ce1e6"></stop></linearGradient><linearGradient x1="75.77944" y1="42.32275" x2="75.77944" y2="133.03125" gradientUnits="userSpaceOnUse" id="color-2_KyhruKR_bj-O_gr2"><stop offset="0" stop-color="#def9fa"></stop><stop offset="1" stop-color="#5ce1e6"></stop></linearGradient><linearGradient x1="117.33088" y1="42.32275" x2="117.33088" y2="133.03125" gradientUnits="userSpaceOnUse" id="color-3_KyhruKR_bj-O_gr3"><stop offset="0" stop-color="#def9fa"></stop><stop offset="1" stop-color="#5ce1e6"></stop></linearGradient><linearGradient x1="154.61994" y1="42.32275" x2="154.61994" y2="133.03125" gradientUnits="userSpaceOnUse" id="color-4_KyhruKR_bj-O_gr4"><stop offset="0" stop-color="#def9fa"></stop><stop offset="1" stop-color="#5ce1e6"></stop></linearGradient><linearGradient x1="115.50606" y1="32.75525" x2="115.50606" y2="48.117" gradientUnits="userSpaceOnUse" id="color-5_KyhruKR_bj-O_gr5"><stop offset="0" stop-color="#ffffff"></stop><stop offset="1" stop-color="#bdf3f5"></stop></linearGradient></defs><g fill="none" fill-rule="none" stroke="none" stroke-width="1" stroke-linecap="butt" stroke-linejoin="miter" stroke-miterlimit="10" stroke-dasharray="" stroke-dashoffset="0" font-family="none" font-weight="none" font-size="none" text-anchor="none" style="mix-blend-mode: normal"><path d="M0,172v-172h172v172z" fill="none" fill-rule="nonzero"></path><g id="original-icon"><path d="M35.04769,84.64819c5.848,0 11.52131,2.65794 16.42331,7.66744l0.30369,0.30369l7.85019,-9.48956l-0.20963,-0.258c-6.52794,-7.71313 -14.35931,-11.46756 -23.98862,-11.46756c-9.66156,0 -18.49537,3.25187 -24.85937,9.116c-6.91494,6.34519 -10.56725,15.30262 -10.56725,25.90481c0,10.5995 3.65231,19.57844 10.56725,25.929c6.36669,5.891 15.19781,9.12406 24.85938,9.12406c9.62931,0 17.46069,-3.75175 23.98863,-11.47025l0.20963,-0.23919l-7.85019,-9.49225l-0.30369,0.29563c-4.902,4.99606 -10.578,7.64056 -16.42331,7.64056c-12.20394,0 -21.06462,-9.15631 -21.06462,-21.78756c0.00269,-12.60975 8.86069,-21.77681 21.06463,-21.77681z" fill="url(#color-1_KyhruKR_bj-O_gr1)" fill-rule="nonzero"></path><rect x="25.481" y="26.567" transform="scale(2.6875,2.6875)" width="5.433" height="26.076" fill="url(#color-2_KyhruKR_bj-O_gr2)" fill-rule="nonzero"></rect><path d="M128.02712,128.96506c-4.81331,0 -6.9875,-2.39188 -6.9875,-7.7185v-38.16788h14.60119v-11.67987h-14.60119v-21.30381l-14.60119,7.35838v13.94812h-11.67719v11.67988h11.67987v40.4845c0,10.52963 6.62469,17.72137 16.512,17.9095c6.71337,0.12363 10.76075,-1.76031 13.21981,-3.13631l0.14513,-0.09944l3.58513,-13.201l-0.8815,0.50794c-3.97481,2.27362 -7.67281,3.4185 -10.99456,3.4185z" fill="url(#color-3_KyhruKR_bj-O_gr3)" fill-rule="nonzero"></path><rect x="54.817" y="26.567" transform="scale(2.6875,2.6875)" width="5.433" height="26.076" fill="url(#color-4_KyhruKR_bj-O_gr4)" fill-rule="nonzero"></rect><path d="M171.35231,58.80788c-0.91106,-1.25506 -1.86244,-2.47519 -2.85413,-3.65769c-13.0075,-15.50419 -32.84394,-24.63094 -53.00019,-24.63094c-21.68544,0 -43.01075,10.56994 -55.83012,28.28863l-0.65844,0.91106h16.16531l0.18006,-0.18813c11.00262,-11.06444 25.36731,-16.91512 40.1405,-16.91512c13.72506,0 27.09269,5.04713 37.75938,14.63344c0.817,0.73369 2.58,2.46981 2.58,2.46981h16.16531z" fill="url(#color-5_KyhruKR_bj-O_gr5)" fill-rule="evenodd"></path></g></g></svg>